<?xml version="1.0" standalone="no"?>
<!DOCTYPE svg PUBLIC "-//W3C//DTD SVG 20010904//EN"
 "http://www.w3.org/TR/2001/REC-SVG-20010904/DTD/svg10.dtd">
<svg version="1.0" xmlns="http://www.w3.org/2000/svg"
 width="666.000000pt" height="666.000000pt" viewBox="0 0 666.000000 666.000000"
 preserveAspectRatio="xMidYMid meet">
<metadata>
Created by potrace 1.11, written by Peter Selinger 2001-2013
</metadata>
<g transform="translate(0.000000,666.000000) scale(0.100000,-0.100000)"
fill="#000000" stroke="none">
<path d="M3538 6488 c-95 -106 -144 -167 -199 -248 -24 -36 -47 -67 -50 -70
-3 -3 -8 -12 -12 -20 -4 -8 -18 -33 -31 -55 -44 -72 -98 -178 -133 -260 -36
-83 -100 -266 -107 -307 -3 -13 -5 -23 -6 -23 -1 0 -3 -7 -5 -15 -45 -227 -55
-307 -56 -480 -1 -96 13 -274 26 -330 3 -14 8 -43 10 -64 3 -21 8 -43 11 -48
3 -4 8 -21 10 -36 3 -15 15 -58 26 -97 12 -38 22 -72 23 -75 1 -9 56 -154 75
-200 16 -38 27 -68 35 -90 1 -3 9 -21 17 -40 60 -134 141 -391 177 -560 19
-87 37 -220 24 -176 -50 177 -162 454 -218 537 -14 21 -25 41 -25 45 0 9 -78
120 -128 184 -70 87 -160 179 -248 250 -130 106 -388 227 -554 260 -25 5 -56
12 -70 15 -50 10 -157 19 -235 19 -77 -1 -202 -11 -214 -18 -3 -2 -23 -7 -45
-10 -195 -31 -458 -188 -608 -363 -53 -62 -162 -239 -173 -283 -1 -3 -4 -12
-7 -20 -54 -155 -68 -333 -39 -475 27 -127 113 -289 205 -386 76 -81 215 -184
296 -222 110 -50 109 -50 222 -75 130 -29 362 -21 458 16 14 5 28 10 32 11 55
11 68 15 68 21 0 4 16 11 35 14 36 7 39 26 4 26 -10 0 -19 4 -19 9 0 5 -10 13
-22 17 -12 3 -29 13 -38 21 -45 42 -90 88 -90 95 0 3 -6 13 -13 20 -27 27 -59
133 -63 205 -7 151 47 264 172 362 60 47 180 79 297 79 213 0 402 -84 574
-256 37 -37 82 -88 98 -112 17 -25 35 -50 41 -56 6 -7 28 -48 50 -93 l39 -81
237 1 238 1 0 1759 c0 1044 -4 1759 -9 1759 -5 0 -42 -37 -83 -82z"/>
<path d="M5277 4604 c-1 -1 -27 -4 -57 -7 -152 -17 -317 -64 -468 -134 -70
-33 -171 -90 -182 -103 -3 -4 -25 -20 -50 -37 -70 -48 -181 -159 -251 -253
-62 -82 -141 -211 -145 -238 -1 -7 -8 -20 -15 -28 -7 -9 -21 -37 -30 -62 -64
-172 -82 -228 -104 -317 -23 -97 -26 -111 -39 -185 -3 -19 -8 -48 -11 -65 -3
-16 -8 -52 -12 -78 l-6 -48 100 2 99 1 29 62 c88 187 242 351 420 446 90 49
128 61 240 80 60 10 228 5 270 -8 222 -68 345 -266 304 -487 -21 -116 -106
-233 -206 -285 -26 -14 -50 -26 -53 -28 -9 -6 28 -23 115 -51 114 -37 144 -42
285 -46 156 -5 286 20 420 82 49 23 158 90 183 113 11 11 24 20 29 20 4 0 7
305 6 677 l-3 677 -60 49 c-157 128 -376 220 -580 243 -47 6 -223 12 -228 8z"/>
<path d="M3185 2902 c-14 -2 -28 -20 -43 -53 -23 -49 -73 -106 -125 -143 -25
-17 -26 -21 -12 -35 40 -42 68 -85 98 -148 l32 -68 485 2 c551 2 525 1 518 9
-13 12 71 164 106 193 17 15 22 41 7 41 -15 0 -121 110 -121 126 0 8 -4 14 -9
14 -5 0 -12 14 -16 30 -4 17 -10 30 -13 31 -24 2 -891 3 -907 1z"/>
<path d="M3119 2271 c-10 -32 -50 -109 -71 -136 -117 -156 -202 -224 -335
-266 -91 -30 -206 -30 -298 0 -91 30 -113 42 -160 88 -71 69 -90 124 -95 278
0 11 -3 16 -8 10 -4 -6 -29 -24 -56 -39 -169 -98 -265 -334 -219 -541 12 -56
60 -184 72 -195 4 -3 19 -23 35 -45 73 -101 217 -192 336 -211 14 -2 36 -7 50
-10 45 -10 175 -5 274 12 157 26 353 165 463 329 50 75 124 221 116 229 -4 3
-1 6 5 6 7 0 11 3 10 8 -2 4 5 27 14 52 19 50 54 179 63 225 2 17 7 39 9 51 5
24 18 132 18 154 1 38 -1 39 -107 38 l-104 -1 -12 -36z"/>
<path d="M3630 1204 c0 -607 2 -1104 5 -1104 3 0 40 19 82 41 43 23 88 47 100
53 13 6 23 14 23 19 0 4 5 7 11 7 32 0 210 163 256 236 17 26 57 98 58 104 0
3 10 30 20 60 31 87 27 326 -7 455 -5 22 -12 47 -13 56 -2 9 -32 102 -66 205
-35 104 -64 191 -64 194 -1 3 -13 43 -27 90 -26 84 -52 182 -62 230 -20 103
-27 133 -32 143 -5 8 -4 9 3 2 5 -5 20 -39 33 -75 36 -104 78 -194 125 -270
12 -19 23 -39 25 -45 1 -5 12 -22 24 -36 11 -15 30 -39 41 -55 36 -50 176
-184 193 -184 6 0 12 -4 14 -8 5 -14 117 -72 138 -72 10 0 21 -4 24 -9 3 -5
23 -12 43 -16 21 -5 45 -10 53 -12 42 -9 83 -12 162 -13 169 -2 321 56 429
163 48 47 89 99 89 113 0 6 8 22 18 35 20 26 48 111 58 174 25 164 -25 337
-129 444 -42 44 -144 118 -151 110 -2 -2 -6 -31 -9 -64 -10 -110 -30 -158 -91
-217 -98 -95 -280 -135 -438 -97 -148 35 -301 166 -396 339 -16 30 -32 67 -36
81 l-6 26 -250 0 -250 0 0 -1103z"/>
</g>
</svg>
